<?xml version="1.0" standalone="no"?><!DOCTYPE svg PUBLIC "-//W3C//DTD SVG 1.1//EN" "http://www.w3.org/Graphics/SVG/1.1/DTD/svg11.dtd"><svg t="1488120925608" class="icon" style="" viewBox="0 0 1024 1024" version="1.1" xmlns="http://www.w3.org/2000/svg" p-id="2685" xmlns:xlink="http://www.w3.org/1999/xlink" width="40" height="40"><defs><style type="text/css"></style></defs><path d="M937.382 183.727c0 33.336-27.226 60.363-60.882 60.363H697.309c-33.69 0-60.949-27.027-60.949-60.363s27.26-60.365 60.949-60.365h179.19c33.657 0.036 60.883 27.067 60.883 60.365zM255.85 367.451c93.505 0 169.299-82.255 169.299-183.724C425.149 82.253 349.355 0 255.85 0 162.338 0 86.546 82.253 86.546 183.727c0 101.469 75.792 183.724 169.304 183.724zM0.005 469.468C23.588 780.335 243.634 1024 512.051 1024c268.205 0 488.317-243.708 511.944-554.532H0.005z" fill="#79B7FF" p-id="2686"></path></svg>