<?xml version="1.0" standalone="no"?><!DOCTYPE svg PUBLIC "-//W3C//DTD SVG 1.1//EN" "http://www.w3.org/Graphics/SVG/1.1/DTD/svg11.dtd"><svg t="1488119187567" class="icon" style="" viewBox="0 0 1024 1024" version="1.1" xmlns="http://www.w3.org/2000/svg" p-id="741" xmlns:xlink="http://www.w3.org/1999/xlink" width="40" height="40"><defs><style type="text/css"></style></defs><path d="M922.987 817.59C986.41 732.251 1024 626.625 1024 512.003 1024 229.24 794.756 0 512.001 0S0 229.241 0 512.004C0 794.754 229.247 1024 512.001 1024c83.72 0 162.823-20.063 232.478-55.812 68.958 55.118 218.637 51.432 279.521 24.443-96.17-40.815-105.626-123.382-101.013-175.042z m-270.99-588.116c0-14.523 11.76-26.056 26.058-26.056 14.303 0 26.064 11.756 26.064 26.056v144.609c0 14.53-11.76 26.059-26.064 26.059-14.298 0-26.059-11.756-26.059-26.06V229.475z m-332.109 0c0-14.523 11.761-26.056 26.06-26.056 14.295 0 26.064 11.756 26.064 26.056v144.609c0 14.53-11.77 26.059-26.065 26.059-14.298 0-26.059-11.756-26.059-26.06V229.475zM512.001 886.55c-189.808 0-343.643-153.832-343.643-343.644H855.64c0 189.812-153.827 343.644-343.64 343.644z" fill="#A689CB" p-id="742"></path></svg>