<?xml version="1.0" standalone="no"?><!DOCTYPE svg PUBLIC "-//W3C//DTD SVG 1.1//EN" "http://www.w3.org/Graphics/SVG/1.1/DTD/svg11.dtd"><svg t="1488122258898" class="icon" style="" viewBox="0 0 1024 1024" version="1.1" xmlns="http://www.w3.org/2000/svg" p-id="7967" xmlns:xlink="http://www.w3.org/1999/xlink" width="40" height="40"><defs><style type="text/css"></style></defs><path d="M 936.741 462.414 c -0.412392 -14.6415 -3.31961 -25.4425 -13.7072 -40.2937 c -1.97396 -3.01057 -319.02 -341.836 -319.02 -341.836 c -22.0175 -23.4695 -51.064 -34.7116 -80.2426 -34.7382 L 523.772 45.312 c -0.418532 -0.025583 -0.938372 0.130983 -1.45719 0.130983 s -1.03763 -0.156566 -1.55747 -0.130983 l 0 0.233314 c -29.0762 0.025583 -58.1514 11.2686 -80.2722 34.7382 c 0 0 -316.939 338.826 -318.912 341.836 c -10.3845 14.8512 -13.2917 25.6522 -13.7082 40.2937 c 0 0 0 5.0889 0 5.50436 c 0 46.2105 37.4888 83.7556 83.7013 83.7556 l 20.0415 0 l 0 300.375 c 0 48.912 43.9254 88.5293 98.0327 88.5293 c 54.1053 0 97.9273 -39.6163 97.9273 -88.5293 L 407.567 551.673 l 113.191 0 l 3.01466 0 l 113.162 0 l 0 300.375 c 0 48.912 43.9295 88.5293 98.0348 88.5293 s 97.9243 -39.6163 97.9243 -88.5293 L 832.894 551.673 l 20.0455 0 c 46.3148 0 83.8026 -37.5431 83.8026 -83.7556 c 0 -0.416486 -0.102331 -0.830925 -0.102331 -1.24536 L 936.741 462.414 Z M 811.918 159.621 l 0.520863 0.649799 l 63.0357 66.6183 c 8.93039 9.39702 23.6793 9.81351 33.0231 0.933255 c 0.103354 -0.051165 0.103354 -0.155543 0.314155 -0.258896 l 0.827855 -0.778736 c 2.80284 -2.90619 4.46673 -5.50232 5.50641 -10.4889 c 0.206708 -0.934279 0.310062 -1.97396 0.411369 -2.9594 c 0.207731 -1.09084 0.414439 -2.12848 0.51984 -3.42808 l 7.27264 -123.63 c 0.518816 -9.00919 -2.80488 -17.0299 -8.30618 -22.9497 l 0 -0.052189 c -0.107447 -0.077771 -0.211824 -0.181125 -0.316202 -0.258896 c -0.104377 -0.104377 -0.205685 -0.207731 -0.312108 -0.338714 l 0 0.025583 c -5.60567 -5.86559 -13.3971 -9.60577 -22.4288 -9.57815 l -123.89 0.311085 c -1.34872 0.052189 -2.28402 0.130983 -3.42705 0.234337 c -1.04173 0.076748 -1.97703 0.104377 -2.90824 0.284479 c -5.0889 0.75213 -7.78838 2.23285 -10.9054 4.95894 l -0.831948 0.831948 c 0 0.051165 -0.207731 0.128937 -0.207731 0.181125 c -9.34074 8.90583 -9.76234 23.6517 -0.936325 33.0497 L 811.918 159.621 Z" fill="#9096be" p-id="7968"></path></svg>